<svg width="375" height="200" viewBox="0 0 375 200" xmlns="http://www.w3.org/2000/svg"><mask id="satori_om-id"><rect x="0" y="0" width="375" height="66" fill="#fff"/></mask><clipPath id="satori_cp-id-0"><path x="0" y="0" width="375" height="8" d="M4,0 h367 a4,4 0 0 1 4,4 v0 a4,4 0 0 1 -4,4 h-367 a4,4 0 0 1 -4,-4 v0 a4,4 0 0 1 4,-4"/></clipPath><mask id="satori_om-id-0"><rect x="0" y="0" width="375" height="8" fill="#fff"/></mask><mask id="satori_om-id-0-0"><rect x="0" y="0" width="173" height="8" fill="#fff" mask="url(#satori_om-id-0)"/></mask><rect x="0" y="0" width="173" height="8" fill="#663399" clip-path="url(#satori_cp-id-0)" mask="url(#satori_om-id-0)"/><mask id="satori_om-id-0-1"><rect x="173" y="0" width="125" height="8" fill="#fff" mask="url(#satori_om-id-0)"/></mask><rect x="173" y="0" width="125" height="8" fill="#dea584" clip-path="url(#satori_cp-id-0)" mask="url(#satori_om-id-0)"/><mask id="satori_om-id-0-2"><rect x="298" y="0" width="74" height="8" fill="#fff" mask="url(#satori_om-id-0)"/></mask><rect x="298" y="0" width="74" height="8" fill="#e34c26" clip-path="url(#satori_cp-id-0)" mask="url(#satori_om-id-0)"/><mask id="satori_om-id-0-3"><rect x="372" y="0" width="3" height="8" fill="#fff" mask="url(#satori_om-id-0)"/></mask><rect x="372" y="0" width="3" height="8" fill="#f1e05a" clip-path="url(#satori_cp-id-0)" mask="url(#satori_om-id-0)"/><mask id="satori_om-id-1"><rect x="0" y="18" width="375" height="48" fill="#fff"/></mask><mask id="satori_om-id-1-0"><rect x="0" y="18" width="112" height="19" fill="#fff"/></mask><mask id="satori_om-id-1-0-0"><rect x="0" y="20" width="16" height="16" fill="#fff"/></mask><mask id="satori_om-id-1-0-0-0"><rect x="4" y="24" width="8" height="8" fill="#fff"/></mask><path x="4" y="24" width="8" height="8" fill="#663399" d="M8,24 h0 a4,4 0 0 1 4,4 v0 a4,4 0 0 1 -4,4 h0 a4,4 0 0 1 -4,-4 v0 a4,4 0 0 1 4,-4"/><mask id="satori_om-id-1-0-1"><rect x="29" y="18" width="31" height="19" fill="#fff"/></mask><g  ><path fill="#24292f" d="M36.6 29.2L38.9 29.2Q38.8 31.0 37.6 32.1Q36.4 33.2 34.4 33.2L34.4 33.2Q32.2 33.2 30.9 31.7Q29.7 30.2 29.7 27.6L29.7 27.6L29.7 26.9Q29.7 25.3 30.3 24.1Q30.8 22.8 31.9 22.1Q33.0 21.5 34.4 21.5L34.4 21.5Q36.4 21.5 37.6 22.5Q38.8 23.6 39.0 25.5L39.0 25.5L36.6 25.5Q36.5 24.4 36.0 23.9Q35.5 23.4 34.4 23.4L34.4 23.4Q33.2 23.4 32.6 24.2Q32.1 25.1 32.0 26.8L32.0 26.8L32.0 27.7Q32.0 29.5 32.6 30.4Q33.2 31.2 34.4 31.2L34.4 31.2Q35.5 31.2 36.0 30.7Q36.5 30.3 36.6 29.2L36.6 29.2ZM46.4 30.0L46.4 30.0Q46.4 29.4 45.9 29.0Q45.4 28.6 44.2 28.2Q43.0 27.9 42.3 27.5L42.3 27.5Q40.4 26.4 40.4 24.6L40.4 24.6Q40.4 23.7 40.9 23.0Q41.4 22.3 42.4 21.9Q43.3 21.5 44.6 21.5L44.6 21.5Q45.8 21.5 46.7 21.9Q47.7 22.4 48.2 23.2Q48.7 24.0 48.7 25.0L48.7 25.0L46.4 25.0Q46.4 24.2 45.9 23.8Q45.4 23.3 44.5 23.3L44.5 23.3Q43.7 23.3 43.2 23.7Q42.7 24.1 42.7 24.7L42.7 24.7Q42.7 25.2 43.3 25.6Q43.8 26.0 44.9 26.3L44.9 26.3Q46.9 26.9 47.8 27.8Q48.7 28.7 48.7 30L48.7 30Q48.7 31.5 47.6 32.3Q46.5 33.2 44.6 33.2L44.6 33.2Q43.3 33.2 42.2 32.7Q41.1 32.2 40.6 31.4Q40.0 30.5 40.0 29.4L40.0 29.4L42.4 29.4Q42.4 31.3 44.6 31.3L44.6 31.3Q45.4 31.3 45.9 31.0Q46.4 30.6 46.4 30.0ZM56.2 30.0L56.2 30.0Q56.2 29.4 55.8 29.0Q55.3 28.6 54.1 28.2Q52.8 27.9 52.1 27.5L52.1 27.5Q50.2 26.4 50.2 24.6L50.2 24.6Q50.2 23.7 50.7 23.0Q51.2 22.3 52.2 21.9Q53.2 21.5 54.4 21.5L54.4 21.5Q55.6 21.5 56.6 21.9Q57.5 22.4 58.0 23.2Q58.6 24.0 58.6 25.0L58.6 25.0L56.2 25.0Q56.2 24.2 55.7 23.8Q55.2 23.3 54.4 23.3L54.4 23.3Q53.5 23.3 53.0 23.7Q52.5 24.1 52.5 24.7L52.5 24.7Q52.5 25.2 53.1 25.6Q53.7 26.0 54.7 26.3L54.7 26.3Q56.7 26.9 57.7 27.8Q58.6 28.7 58.6 30L58.6 30Q58.6 31.5 57.5 32.3Q56.3 33.2 54.4 33.2L54.4 33.2Q53.1 33.2 52.1 32.7Q51.0 32.2 50.4 31.4Q49.8 30.5 49.8 29.4L49.8 29.4L52.2 29.4Q52.2 31.3 54.4 31.3L54.4 31.3Q55.3 31.3 55.8 31.0Q56.2 30.6 56.2 30.0Z "/></g><mask id="satori_om-id-1-0-2"><rect x="69" y="18" width="43" height="19" fill="#fff"/></mask><g  ><path fill="#57606a" d="M76.0 21.6L76.0 29.2L77.6 29.2L77.6 30.4L76.0 30.4L76.0 33L74.6 33L74.6 30.4L69.4 30.4L69.4 29.5L74.5 21.6L76.0 21.6ZM74.4 23.9L71.1 29.2L74.6 29.2L74.6 23.6L74.4 23.9ZM84.3 21.6L84.6 21.6L84.6 22.8L84.3 22.8Q82.6 22.9 81.6 23.8Q80.6 24.8 80.5 26.6L80.5 26.6Q81.4 25.5 82.9 25.5L82.9 25.5Q84.4 25.5 85.3 26.6Q86.2 27.6 86.2 29.3L86.2 29.3Q86.2 31.0 85.2 32.1Q84.3 33.2 82.7 33.2L82.7 33.2Q81.0 33.2 80.0 31.9Q79.0 30.6 79.0 28.7L79.0 28.7L79.0 28.1Q79.0 25.0 80.4 23.3Q81.7 21.7 84.3 21.6L84.3 21.6ZM82.7 26.7L82.7 26.7Q82.0 26.7 81.3 27.2Q80.7 27.6 80.5 28.3L80.5 28.3L80.5 28.8Q80.5 30.2 81.1 31.1Q81.7 32.0 82.7 32.0L82.7 32.0Q83.7 32.0 84.2 31.2Q84.8 30.5 84.8 29.4L84.8 29.4Q84.8 28.2 84.2 27.5Q83.6 26.7 82.7 26.7ZM88.1 32.2L88.1 32.2Q88.1 31.9 88.3 31.6Q88.5 31.4 89.0 31.4Q89.4 31.4 89.7 31.6Q89.9 31.9 89.9 32.2L89.9 32.2Q89.9 32.6 89.7 32.8Q89.4 33.1 89.0 33.1Q88.5 33.1 88.3 32.8Q88.1 32.6 88.1 32.2ZM99.3 26.3L99.3 28.1Q99.3 30.7 98.4 31.9Q97.5 33.2 95.7 33.2L95.7 33.2Q93.9 33.2 93.0 31.9Q92.1 30.7 92.1 28.3L92.1 28.3L92.1 26.4Q92.1 23.9 92.9 22.7Q93.8 21.5 95.7 21.5L95.7 21.5Q97.5 21.5 98.4 22.6Q99.2 23.8 99.3 26.3L99.3 26.3ZM97.8 28.5L97.8 26.2Q97.8 24.3 97.3 23.5Q96.8 22.7 95.7 22.7L95.7 22.7Q94.6 22.7 94.0 23.5Q93.5 24.3 93.5 26.1L93.5 26.1L93.5 28.4Q93.5 30.2 94.1 31.1Q94.6 32.0 95.7 32.0L95.7 32.0Q96.8 32.0 97.3 31.1Q97.8 30.3 97.8 28.5L97.8 28.5ZM101.0 24.4L101.0 23.8Q101.0 22.8 101.6 22.1Q102.3 21.5 103.3 21.5L103.3 21.5Q104.4 21.5 105.0 22.1Q105.6 22.8 105.6 23.9L105.6 23.9L105.6 24.4Q105.6 25.4 105.0 26.1Q104.3 26.8 103.3 26.8L103.3 26.8Q102.3 26.8 101.6 26.1Q101.0 25.4 101.0 24.4L101.0 24.4ZM102.1 23.8L102.1 24.4Q102.1 25.0 102.4 25.4Q102.8 25.8 103.3 25.8L103.3 25.8Q103.9 25.8 104.2 25.4Q104.6 25.0 104.6 24.4L104.6 24.4L104.6 23.8Q104.6 23.2 104.2 22.8Q103.9 22.4 103.3 22.4Q102.7 22.4 102.4 22.8Q102.1 23.2 102.1 23.8L102.1 23.8ZM106.5 30.8L106.5 30.2Q106.5 29.2 107.2 28.5Q107.8 27.9 108.9 27.9Q109.9 27.9 110.5 28.5Q111.2 29.2 111.2 30.3L111.2 30.3L111.2 30.8Q111.2 31.8 110.5 32.5Q109.9 33.2 108.9 33.2Q107.9 33.2 107.2 32.5Q106.5 31.9 106.5 30.8L106.5 30.8ZM107.6 30.2L107.6 30.8Q107.6 31.4 107.9 31.8Q108.3 32.2 108.9 32.2L108.9 32.2Q109.4 32.2 109.8 31.8Q110.1 31.5 110.1 30.8L110.1 30.8L110.1 30.2Q110.1 29.6 109.8 29.2Q109.4 28.8 108.9 28.8L108.9 28.8Q108.3 28.8 107.9 29.2Q107.6 29.6 107.6 30.2L107.6 30.2ZM109.2 23.3L103.7 32.1L102.8 31.6L108.4 22.7L109.2 23.3Z "/></g><mask id="satori_om-id-1-1"><rect x="122" y="18" width="114" height="19" fill="#fff"/></mask><mask id="satori_om-id-1-1-0"><rect x="122" y="20" width="16" height="16" fill="#fff"/></mask><mask id="satori_om-id-1-1-0-0"><rect x="126" y="24" width="8" height="8" fill="#fff"/></mask><path x="126" y="24" width="8" height="8" fill="#dea584" d="M130,24 h0 a4,4 0 0 1 4,4 v0 a4,4 0 0 1 -4,4 h0 a4,4 0 0 1 -4,-4 v0 a4,4 0 0 1 4,-4"/><mask id="satori_om-id-1-1-1"><rect x="151" y="18" width="33" height="19" fill="#fff"/></mask><g  ><path fill="#24292f" d="M158.4 33L156.2 28.8L154.4 28.8L154.4 33L152.0 33L152.0 21.6L156.2 21.6Q158.3 21.6 159.4 22.5Q160.4 23.4 160.4 25.1L160.4 25.1Q160.4 26.2 159.9 27.0Q159.4 27.8 158.4 28.2L158.4 28.2L160.9 32.9L160.9 33L158.4 33ZM154.4 23.5L154.4 26.9L156.3 26.9Q157.1 26.9 157.6 26.5Q158.1 26.0 158.1 25.3L158.1 25.3Q158.1 24.4 157.6 24.0Q157.2 23.5 156.2 23.5L156.2 23.5L154.4 23.5ZM167.2 33L167.1 32.1Q166.3 33.2 164.8 33.2L164.8 33.2Q163.5 33.2 162.8 32.4Q162.0 31.6 162.0 30.1L162.0 30.1L162.0 24.5L164.3 24.5L164.3 30.0Q164.3 31.3 165.5 31.3L165.5 31.3Q166.6 31.3 167.1 30.5L167.1 30.5L167.1 24.5L169.3 24.5L169.3 33L167.2 33ZM175.6 30.7L175.6 30.7Q175.6 30.3 175.2 30.0Q174.8 29.8 173.9 29.6L173.9 29.6Q170.9 29.0 170.9 27.0L170.9 27.0Q170.9 25.9 171.8 25.1Q172.7 24.4 174.2 24.4L174.2 24.4Q175.9 24.4 176.8 25.1Q177.8 25.9 177.8 27.1L177.8 27.1L175.5 27.1Q175.5 26.6 175.2 26.3Q174.9 26 174.2 26L174.2 26Q173.7 26 173.4 26.3Q173.0 26.5 173.0 26.9L173.0 26.9Q173.0 27.3 173.4 27.5Q173.8 27.8 174.6 27.9Q175.4 28.1 176.0 28.3L176.0 28.3Q177.8 29.0 177.8 30.6L177.8 30.6Q177.8 31.7 176.8 32.4Q175.8 33.2 174.3 33.2L174.3 33.2Q173.2 33.2 172.4 32.8Q171.5 32.4 171.1 31.7Q170.6 31.1 170.6 30.3L170.6 30.3L172.7 30.3Q172.8 30.9 173.2 31.2Q173.6 31.6 174.3 31.6L174.3 31.6Q174.9 31.6 175.3 31.3Q175.6 31.1 175.6 30.7ZM179.7 22.5L182.0 22.5L182.0 24.5L183.4 24.5L183.4 26.2L182.0 26.2L182.0 30.4Q182.0 30.9 182.1 31.1Q182.3 31.3 182.8 31.3L182.8 31.3Q183.2 31.3 183.5 31.2L183.5 31.2L183.5 33.0Q182.8 33.2 182.1 33.2L182.1 33.2Q179.8 33.2 179.7 30.8L179.7 30.8L179.7 26.2L178.5 26.2L178.5 24.5L179.7 24.5L179.7 22.5Z "/></g><mask id="satori_om-id-1-1-2"><rect x="193" y="18" width="43" height="19" fill="#fff"/></mask><g  ><path fill="#57606a" d="M196.0 27.8L196.0 26.6L197.1 26.6Q198.2 26.6 198.7 26.1Q199.3 25.5 199.3 24.7L199.3 24.7Q199.3 22.7 197.3 22.7L197.3 22.7Q196.4 22.7 195.8 23.2Q195.3 23.7 195.3 24.6L195.3 24.6L193.8 24.6Q193.8 23.3 194.8 22.4Q195.8 21.5 197.3 21.5L197.3 21.5Q198.9 21.5 199.9 22.3Q200.8 23.2 200.8 24.7L200.8 24.7Q200.8 25.4 200.3 26.1Q199.8 26.8 199.0 27.2L199.0 27.2Q199.9 27.5 200.4 28.1Q200.9 28.8 200.9 29.8L200.9 29.8Q200.9 31.4 199.9 32.3Q198.9 33.2 197.3 33.2Q195.7 33.2 194.7 32.3Q193.7 31.4 193.7 30L193.7 30L195.2 30Q195.2 30.9 195.8 31.4Q196.4 32.0 197.3 32.0L197.3 32.0Q198.4 32.0 198.9 31.4Q199.5 30.9 199.5 29.9L199.5 29.9Q199.5 28.9 198.9 28.3Q198.3 27.8 197.1 27.8L197.1 27.8L196.0 27.8ZM205.0 27.8L205.0 26.6L206.1 26.6Q207.1 26.6 207.7 26.1Q208.3 25.5 208.3 24.7L208.3 24.7Q208.3 22.7 206.3 22.7L206.3 22.7Q205.4 22.7 204.8 23.2Q204.3 23.7 204.3 24.6L204.3 24.6L202.8 24.6Q202.8 23.3 203.8 22.4Q204.8 21.5 206.3 21.5L206.3 21.5Q207.9 21.5 208.8 22.3Q209.8 23.2 209.8 24.7L209.8 24.7Q209.8 25.4 209.3 26.1Q208.8 26.8 208.0 27.2L208.0 27.2Q208.9 27.5 209.4 28.1Q209.9 28.8 209.9 29.8L209.9 29.8Q209.9 31.4 208.9 32.3Q207.9 33.2 206.3 33.2Q204.7 33.2 203.7 32.3Q202.7 31.4 202.7 30L202.7 30L204.2 30Q204.2 30.9 204.8 31.4Q205.3 32.0 206.3 32.0L206.3 32.0Q207.4 32.0 207.9 31.4Q208.5 30.9 208.5 29.9L208.5 29.9Q208.5 28.9 207.9 28.3Q207.3 27.8 206.1 27.8L206.1 27.8L205.0 27.8ZM212.1 32.2L212.1 32.2Q212.1 31.9 212.3 31.6Q212.5 31.4 213.0 31.4Q213.4 31.4 213.7 31.6Q213.9 31.9 213.9 32.2L213.9 32.2Q213.9 32.6 213.7 32.8Q213.4 33.1 213.0 33.1Q212.5 33.1 212.3 32.8Q212.1 32.6 212.1 32.2ZM217.9 27.6L216.8 27.3L217.4 21.6L223.2 21.6L223.2 23.0L218.6 23.0L218.3 26.1Q219.1 25.6 220.1 25.6L220.1 25.6Q221.7 25.6 222.6 26.6Q223.5 27.6 223.5 29.4L223.5 29.4Q223.5 31.1 222.6 32.1Q221.6 33.2 219.9 33.2L219.9 33.2Q218.4 33.2 217.5 32.3Q216.5 31.5 216.4 30.0L216.4 30.0L217.8 30.0Q217.9 31.0 218.4 31.5Q219.0 32.0 219.9 32.0L219.9 32.0Q220.9 32.0 221.5 31.3Q222.1 30.6 222.1 29.4L222.1 29.4Q222.1 28.3 221.5 27.6Q220.8 26.9 219.8 26.9L219.8 26.9Q218.9 26.9 218.3 27.3L218.3 27.3L217.9 27.6ZM225.0 24.4L225.0 23.8Q225.0 22.8 225.6 22.1Q226.3 21.5 227.3 21.5L227.3 21.5Q228.4 21.5 229.0 22.1Q229.6 22.8 229.6 23.9L229.6 23.9L229.6 24.4Q229.6 25.4 229.0 26.1Q228.3 26.8 227.3 26.8L227.3 26.8Q226.3 26.8 225.6 26.1Q225.0 25.4 225.0 24.4L225.0 24.4ZM226.1 23.8L226.1 24.4Q226.1 25.0 226.4 25.4Q226.8 25.8 227.3 25.8L227.3 25.8Q227.9 25.8 228.2 25.4Q228.6 25.0 228.6 24.4L228.6 24.4L228.6 23.8Q228.6 23.2 228.2 22.8Q227.9 22.4 227.3 22.4Q226.7 22.4 226.4 22.8Q226.1 23.2 226.1 23.8L226.1 23.8ZM230.5 30.8L230.5 30.2Q230.5 29.2 231.2 28.5Q231.8 27.9 232.9 27.9Q233.9 27.9 234.5 28.5Q235.2 29.2 235.2 30.3L235.2 30.3L235.2 30.8Q235.2 31.8 234.5 32.5Q233.9 33.2 232.9 33.2Q231.9 33.2 231.2 32.5Q230.5 31.9 230.5 30.8L230.5 30.8ZM231.6 30.2L231.6 30.8Q231.6 31.4 231.9 31.8Q232.3 32.2 232.9 32.2L232.9 32.2Q233.4 32.2 233.8 31.8Q234.1 31.5 234.1 30.8L234.1 30.8L234.1 30.2Q234.1 29.6 233.8 29.2Q233.4 28.8 232.9 28.8L232.9 28.8Q232.3 28.8 231.9 29.2Q231.6 29.6 231.6 30.2L231.6 30.2ZM233.2 23.3L227.7 32.1L226.8 31.6L232.4 22.7L233.2 23.3Z "/></g><mask id="satori_om-id-1-2"><rect x="246" y="18" width="125" height="19" fill="#fff"/></mask><mask id="satori_om-id-1-2-0"><rect x="246" y="20" width="16" height="16" fill="#fff"/></mask><mask id="satori_om-id-1-2-0-0"><rect x="250" y="24" width="8" height="8" fill="#fff"/></mask><path x="250" y="24" width="8" height="8" fill="#e34c26" d="M254,24 h0 a4,4 0 0 1 4,4 v0 a4,4 0 0 1 -4,4 h0 a4,4 0 0 1 -4,-4 v0 a4,4 0 0 1 4,-4"/><mask id="satori_om-id-1-2-1"><rect x="275" y="18" width="44" height="19" fill="#fff"/></mask><g  ><path fill="#24292f" d="M285.3 21.6L285.3 33L282.9 33L282.9 28.1L278.4 28.1L278.4 33L276.0 33L276.0 21.6L278.4 21.6L278.4 26.2L282.9 26.2L282.9 21.6L285.3 21.6ZM295.7 21.6L295.7 23.5L292.2 23.5L292.2 33L289.8 33L289.8 23.5L286.4 23.5L286.4 21.6L295.7 21.6ZM297.0 21.6L300.1 21.6L303.0 29.9L305.9 21.6L309.0 21.6L309.0 33L306.6 33L306.6 29.9L306.8 24.5L303.8 33L302.2 33L299.1 24.5L299.3 29.9L299.3 33L297.0 33L297.0 21.6ZM313.4 21.6L313.4 31.1L318.3 31.1L318.3 33L311.0 33L311.0 21.6L313.4 21.6Z "/></g><mask id="satori_om-id-1-2-2"><rect x="328" y="18" width="43" height="19" fill="#fff"/></mask><g  ><path fill="#57606a" d="M333.7 21.6L333.7 33L332.2 33L332.2 23.4L329.3 24.4L329.3 23.1L333.5 21.6L333.7 21.6ZM343.5 28L343.5 28Q343.0 28.5 342.4 28.9Q341.8 29.2 341.0 29.2L341.0 29.2Q340.0 29.2 339.3 28.7Q338.6 28.2 338.2 27.3Q337.8 26.5 337.8 25.4L337.8 25.4Q337.8 24.3 338.2 23.4Q338.6 22.4 339.4 22.0Q340.2 21.5 341.3 21.5L341.3 21.5Q343.0 21.5 343.9 22.7Q344.9 24.0 344.9 26.2L344.9 26.2L344.9 26.6Q344.9 29.9 343.6 31.4Q342.3 33.0 339.6 33.0L339.6 33.0L339.4 33.0L339.4 31.8L339.7 31.8Q341.5 31.8 342.4 30.9Q343.4 30.0 343.5 28ZM341.2 28L341.2 28Q342.0 28 342.6 27.6Q343.2 27.1 343.5 26.5L343.5 26.5L343.5 25.9Q343.5 24.5 342.9 23.6Q342.2 22.7 341.3 22.7L341.3 22.7Q340.3 22.7 339.8 23.4Q339.2 24.1 339.2 25.3L339.2 25.3Q339.2 26.5 339.7 27.2Q340.3 28 341.2 28ZM347.1 32.2L347.1 32.2Q347.1 31.9 347.3 31.6Q347.5 31.4 348.0 31.4Q348.4 31.4 348.7 31.6Q348.9 31.9 348.9 32.2L348.9 32.2Q348.9 32.6 348.7 32.8Q348.4 33.1 348.0 33.1Q347.5 33.1 347.3 32.8Q347.1 32.6 347.1 32.2ZM358.5 21.6L358.5 22.4L353.8 33L352.2 33L356.9 22.8L350.8 22.8L350.8 21.6L358.5 21.6ZM360.0 24.4L360.0 23.8Q360.0 22.8 360.6 22.1Q361.3 21.5 362.3 21.5L362.3 21.5Q363.4 21.5 364.0 22.1Q364.6 22.8 364.6 23.9L364.6 23.9L364.6 24.4Q364.6 25.4 364.0 26.1Q363.3 26.8 362.3 26.8L362.3 26.8Q361.3 26.8 360.6 26.1Q360.0 25.4 360.0 24.4L360.0 24.4ZM361.1 23.8L361.1 24.4Q361.1 25.0 361.4 25.4Q361.8 25.8 362.3 25.8L362.3 25.8Q362.9 25.8 363.2 25.4Q363.6 25.0 363.6 24.4L363.6 24.4L363.6 23.8Q363.6 23.2 363.2 22.8Q362.9 22.4 362.3 22.4Q361.7 22.4 361.4 22.8Q361.1 23.2 361.1 23.8L361.1 23.8ZM365.5 30.8L365.5 30.2Q365.5 29.2 366.2 28.5Q366.8 27.9 367.9 27.9Q368.9 27.9 369.5 28.5Q370.2 29.2 370.2 30.3L370.2 30.3L370.2 30.8Q370.2 31.8 369.5 32.5Q368.9 33.2 367.9 33.2Q366.9 33.2 366.2 32.5Q365.5 31.9 365.5 30.8L365.5 30.8ZM366.6 30.2L366.6 30.8Q366.6 31.4 366.9 31.8Q367.3 32.2 367.9 32.2L367.9 32.2Q368.4 32.2 368.8 31.8Q369.1 31.5 369.1 30.8L369.1 30.8L369.1 30.2Q369.1 29.6 368.8 29.2Q368.4 28.8 367.9 28.8L367.9 28.8Q367.3 28.8 366.9 29.2Q366.6 29.6 366.6 30.2L366.6 30.2ZM368.2 23.3L362.7 32.1L361.8 31.6L367.4 22.7L368.2 23.3Z "/></g><mask id="satori_om-id-1-3"><rect x="0" y="47" width="149" height="19" fill="#fff"/></mask><mask id="satori_om-id-1-3-0"><rect x="0" y="49" width="16" height="16" fill="#fff"/></mask><mask id="satori_om-id-1-3-0-0"><rect x="4" y="53" width="8" height="8" fill="#fff"/></mask><path x="4" y="53" width="8" height="8" fill="#f1e05a" d="M8,53 h0 a4,4 0 0 1 4,4 v0 a4,4 0 0 1 -4,4 h0 a4,4 0 0 1 -4,-4 v0 a4,4 0 0 1 4,-4"/><mask id="satori_om-id-1-3-1"><rect x="29" y="47" width="77" height="19" fill="#fff"/></mask><g  ><path fill="#24292f" d="M34.6 58.5L34.6 50.6L36.9 50.6L36.9 58.5Q36.9 59.6 36.5 60.4Q36.0 61.3 35.1 61.7Q34.2 62.2 33.1 62.2L33.1 62.2Q31.3 62.2 30.3 61.2Q29.3 60.3 29.3 58.6L29.3 58.6L31.7 58.6Q31.7 59.5 32.0 59.9Q32.4 60.3 33.1 60.3L33.1 60.3Q33.8 60.3 34.2 59.8Q34.6 59.4 34.6 58.5L34.6 58.5ZM46.0 62L43.7 62Q43.5 61.7 43.5 61.2L43.5 61.2Q42.7 62.2 41.3 62.2L41.3 62.2Q40.1 62.2 39.3 61.4Q38.5 60.7 38.5 59.6L38.5 59.6Q38.5 58.3 39.5 57.6Q40.5 56.8 42.3 56.8L42.3 56.8L43.4 56.8L43.4 56.4Q43.4 55.8 43.1 55.4Q42.8 55.1 42.1 55.1L42.1 55.1Q41.6 55.1 41.2 55.3Q40.9 55.6 40.9 56.1L40.9 56.1L38.7 56.1Q38.7 55.4 39.1 54.7Q39.6 54.1 40.4 53.7Q41.2 53.4 42.3 53.4L42.3 53.4Q43.8 53.4 44.7 54.2Q45.6 55.0 45.6 56.4L45.6 56.4L45.6 60.0Q45.7 61.3 46.0 61.9L46.0 61.9L46.0 62ZM41.8 60.4L41.8 60.4Q42.3 60.4 42.8 60.2Q43.2 60.0 43.4 59.6L43.4 59.6L43.4 58.2L42.5 58.2Q40.8 58.2 40.7 59.3L40.7 59.3L40.7 59.5Q40.7 59.9 41.0 60.2Q41.3 60.4 41.8 60.4ZM48.9 53.5L50.4 59.2L52 53.5L54.4 53.5L51.5 62L49.4 62L46.5 53.5L48.9 53.5ZM62.4 62L60.1 62Q60.0 61.7 59.9 61.2L59.9 61.2Q59.1 62.2 57.8 62.2L57.8 62.2Q56.5 62.2 55.7 61.4Q54.9 60.7 54.9 59.6L54.9 59.6Q54.9 58.3 55.9 57.6Q56.9 56.8 58.8 56.8L58.8 56.8L59.8 56.8L59.8 56.4Q59.8 55.8 59.5 55.4Q59.2 55.1 58.6 55.1L58.6 55.1Q58.0 55.1 57.7 55.3Q57.3 55.6 57.3 56.1L57.3 56.1L55.1 56.1Q55.1 55.4 55.5 54.7Q56.0 54.1 56.8 53.7Q57.6 53.4 58.7 53.4L58.7 53.4Q60.2 53.4 61.2 54.2Q62.1 55.0 62.1 56.4L62.1 56.4L62.1 60.0Q62.1 61.3 62.4 61.9L62.4 61.9L62.4 62ZM58.3 60.4L58.3 60.4Q58.8 60.4 59.2 60.2Q59.6 60.0 59.8 59.6L59.8 59.6L59.8 58.2L59.0 58.2Q57.3 58.2 57.2 59.3L57.2 59.3L57.2 59.5Q57.2 59.9 57.5 60.2Q57.8 60.4 58.3 60.4ZM69.9 59.0L69.9 59.0Q69.9 58.4 69.4 58.0Q68.9 57.6 67.7 57.2Q66.5 56.9 65.8 56.5L65.8 56.5Q63.8 55.4 63.8 53.6L63.8 53.6Q63.8 52.7 64.4 52.0Q64.9 51.3 65.8 50.9Q66.8 50.5 68.0 50.5L68.0 50.5Q69.3 50.5 70.2 50.9Q71.2 51.4 71.7 52.2Q72.2 53.0 72.2 54.0L72.2 54.0L69.9 54.0Q69.9 53.2 69.4 52.8Q68.9 52.3 68.0 52.3L68.0 52.3Q67.1 52.3 66.7 52.7Q66.2 53.1 66.2 53.7L66.2 53.7Q66.2 54.2 66.7 54.6Q67.3 55.0 68.4 55.3L68.4 55.3Q70.4 55.9 71.3 56.8Q72.2 57.7 72.2 59L72.2 59Q72.2 60.5 71.1 61.3Q70.0 62.2 68.1 62.2L68.1 62.2Q66.8 62.2 65.7 61.7Q64.6 61.2 64.1 60.4Q63.5 59.5 63.5 58.4L63.5 58.4L65.8 58.4Q65.8 60.3 68.1 60.3L68.1 60.3Q68.9 60.3 69.4 60.0Q69.9 59.6 69.9 59.0ZM77.2 60.3L77.2 60.3Q77.8 60.3 78.2 60.0Q78.6 59.6 78.6 59.1L78.6 59.1L80.7 59.1Q80.7 59.9 80.2 60.7Q79.8 61.4 79.0 61.8Q78.2 62.2 77.2 62.2L77.2 62.2Q75.4 62.2 74.3 61.0Q73.3 59.9 73.3 57.8L73.3 57.8L73.3 57.7Q73.3 55.7 74.3 54.6Q75.4 53.4 77.2 53.4L77.2 53.4Q78.8 53.4 79.7 54.3Q80.7 55.2 80.7 56.7L80.7 56.7L78.6 56.7Q78.6 56.0 78.2 55.6Q77.8 55.2 77.1 55.2L77.1 55.2Q76.4 55.2 76.0 55.8Q75.6 56.4 75.6 57.7L75.6 57.7L75.6 57.9Q75.6 59.2 76.0 59.8Q76.4 60.3 77.2 60.3ZM86.8 53.5L86.7 55.7Q86.3 55.6 85.9 55.6L85.9 55.6Q84.6 55.6 84.3 56.5L84.3 56.5L84.3 62L82.0 62L82.0 53.5L84.1 53.5L84.2 54.6Q84.9 53.4 86.1 53.4L86.1 53.4Q86.4 53.4 86.8 53.5L86.8 53.5ZM90.2 53.5L90.2 62L87.9 62L87.9 53.5L90.2 53.5ZM87.8 51.4L87.8 51.4Q87.8 50.9 88.2 50.5Q88.5 50.2 89.1 50.2L89.1 50.2Q89.7 50.2 90 50.5Q90.3 50.9 90.3 51.4L90.3 51.4Q90.3 51.9 90.0 52.2Q89.6 52.5 89.1 52.5Q88.5 52.5 88.2 52.2Q87.8 51.9 87.8 51.4ZM99.7 57.7L99.7 57.9Q99.7 59.8 98.8 61.0Q97.9 62.2 96.4 62.2L96.4 62.2Q95.1 62.2 94.3 61.3L94.3 61.3L94.3 65.3L92.1 65.3L92.1 53.5L94.2 53.5L94.2 54.4Q95.1 53.4 96.4 53.4L96.4 53.4Q97.9 53.4 98.8 54.5Q99.7 55.7 99.7 57.7L99.7 57.7ZM97.4 57.7L97.4 57.7Q97.4 56.5 97.0 55.9Q96.6 55.2 95.8 55.2L95.8 55.2Q94.7 55.2 94.3 56.0L94.3 56.0L94.3 59.5Q94.7 60.3 95.8 60.3L95.8 60.3Q97.4 60.3 97.4 57.7ZM101.5 51.5L103.8 51.5L103.8 53.5L105.2 53.5L105.2 55.2L103.8 55.2L103.8 59.4Q103.8 59.9 104.0 60.1Q104.1 60.3 104.6 60.3L104.6 60.3Q105.0 60.3 105.3 60.2L105.3 60.2L105.3 62.0Q104.6 62.2 103.9 62.2L103.9 62.2Q101.6 62.2 101.5 59.8L101.5 59.8L101.5 55.2L100.3 55.2L100.3 53.5L101.5 53.5L101.5 51.5Z "/></g><mask id="satori_om-id-1-3-2"><rect x="115" y="47" width="34" height="19" fill="#fff"/></mask><g  ><path fill="#57606a" d="M123.1 55.3L123.1 57.1Q123.1 59.7 122.2 60.9Q121.3 62.2 119.5 62.2L119.5 62.2Q117.7 62.2 116.8 60.9Q115.9 59.7 115.9 57.3L115.9 57.3L115.9 55.4Q115.9 52.9 116.8 51.7Q117.6 50.5 119.5 50.5L119.5 50.5Q121.3 50.5 122.2 51.6Q123.1 52.8 123.1 55.3L123.1 55.3ZM121.6 57.5L121.6 55.2Q121.6 53.3 121.1 52.5Q120.6 51.7 119.5 51.7L119.5 51.7Q118.4 51.7 117.9 52.5Q117.4 53.3 117.3 55.1L117.3 55.1L117.3 57.4Q117.3 59.2 117.9 60.1Q118.4 61.0 119.5 61.0L119.5 61.0Q120.6 61.0 121.1 60.1Q121.6 59.3 121.6 57.5L121.6 57.5ZM125.1 61.2L125.1 61.2Q125.1 60.9 125.3 60.6Q125.6 60.4 126 60.4Q126.4 60.4 126.7 60.6Q126.9 60.9 126.9 61.2L126.9 61.2Q126.9 61.6 126.7 61.8Q126.4 62.1 126 62.1Q125.6 62.1 125.3 61.8Q125.1 61.6 125.1 61.2ZM136.0 53.6L136.0 53.6Q136.0 54.4 135.6 55.1Q135.1 55.8 134.4 56.1L134.4 56.1Q135.3 56.5 135.8 57.3Q136.3 58 136.3 58.9L136.3 58.9Q136.3 60.4 135.3 61.3Q134.3 62.2 132.7 62.2L132.7 62.2Q131.0 62.2 130.1 61.3Q129.1 60.4 129.1 58.9L129.1 58.9Q129.1 58.0 129.6 57.3Q130.1 56.5 131.0 56.1L131.0 56.1Q130.2 55.8 129.8 55.1Q129.3 54.4 129.3 53.6L129.3 53.6Q129.3 52.2 130.3 51.3Q131.2 50.5 132.7 50.5L132.7 50.5Q134.2 50.5 135.1 51.3Q136.0 52.2 136.0 53.6ZM134.9 58.9L134.9 58.9Q134.9 57.9 134.3 57.3Q133.6 56.7 132.7 56.7Q131.7 56.7 131.1 57.3Q130.5 57.9 130.5 58.9Q130.5 59.9 131.1 60.4Q131.7 61.0 132.7 61.0L132.7 61.0Q133.7 61.0 134.3 60.4Q134.9 59.9 134.9 58.9ZM132.7 51.7L132.7 51.7Q131.8 51.7 131.3 52.2Q130.8 52.7 130.8 53.6L130.8 53.6Q130.8 54.5 131.3 55.0Q131.8 55.6 132.7 55.6Q133.6 55.6 134.1 55.0Q134.6 54.5 134.6 53.6Q134.6 52.8 134.1 52.2Q133.5 51.7 132.7 51.7ZM138 53.4L138 52.8Q138 51.8 138.7 51.1Q139.3 50.5 140.3 50.5L140.3 50.5Q141.4 50.5 142.0 51.1Q142.7 51.8 142.7 52.9L142.7 52.9L142.7 53.4Q142.7 54.4 142.0 55.1Q141.4 55.8 140.3 55.8L140.3 55.8Q139.3 55.8 138.7 55.1Q138 54.4 138 53.4L138 53.4ZM139.1 52.8L139.1 53.4Q139.1 54.0 139.4 54.4Q139.8 54.8 140.3 54.8L140.3 54.8Q140.9 54.8 141.2 54.4Q141.6 54.0 141.6 53.4L141.6 53.4L141.6 52.8Q141.6 52.2 141.2 51.8Q140.9 51.4 140.3 51.4Q139.8 51.4 139.4 51.8Q139.1 52.2 139.1 52.8L139.1 52.8ZM143.5 59.8L143.5 59.2Q143.5 58.2 144.2 57.5Q144.8 56.9 145.9 56.9Q146.9 56.9 147.5 57.5Q148.2 58.2 148.2 59.3L148.2 59.3L148.2 59.8Q148.2 60.8 147.6 61.5Q146.9 62.2 145.9 62.2Q144.9 62.2 144.2 61.5Q143.5 60.9 143.5 59.8L143.5 59.8ZM144.6 59.2L144.6 59.8Q144.6 60.4 145.0 60.8Q145.3 61.2 145.9 61.2L145.9 61.2Q146.4 61.2 146.8 60.8Q147.1 60.5 147.1 59.8L147.1 59.8L147.1 59.2Q147.1 58.6 146.8 58.2Q146.4 57.8 145.9 57.8L145.9 57.8Q145.3 57.8 145.0 58.2Q144.6 58.6 144.6 59.2L144.6 59.2ZM146.2 52.3L140.7 61.1L139.9 60.6L145.4 51.7L146.2 52.3Z "/></g></svg>