<svg xmlns="http://www.w3.org/2000/svg" width="256" height="256" fill="none" viewBox="0 0 256 256">
  <rect width="256" height="256" fill="#fff" rx="60"/>
  <!-- 横方向は中央、上下のみ調整（下方向へ約16px移動） -->
  <g transform="translate(0,16) scale(0.8)">
    <path d="M28.16 246.51h53.12c2.82 0 5.32-1.57 6.89-3.76l124.27-192.5c1.88-3.04-0.31-6.69-4.04-6.69h-50.39c-2.51 0-4.71 1.25-5.96 3.45L27.88 242.12c-0.94 1.88 0.31 4.37 2.28 4.37zm183.13-3.76 69.07-111.01c2.18-3.44-0.31-7.81-4.37-7.81h-49.97c-1.88 0-3.76 0.94-4.71 2.51l-70.99 113.45c-1.88 2.82 0.31 6.59 3.76 6.59h51.16c2.51-0.01 5.02-1.26 6.29-3.74z" fill="#3ea8ff"/>
  </g>
</svg>